<svg id="Capa_1" enable-background="new 0 0 512 512" height="512" viewBox="0 0 512 512" width="512" xmlns="http://www.w3.org/2000/svg"><g><g><path d="m239.96 8.497c-123.833 7.791-224.165 108.529-231.518 232.389-3.529 59.436 13.914 114.664 45.588 159.032 1.552 2.174 1.937 4.954.978 7.448l-24.554 63.84c-2.488 6.47 3.869 12.827 10.339 10.339l63.841-24.554c2.494-.959 5.274-.574 7.448.978 44.369 31.675 99.596 49.117 159.032 45.589 123.861-7.354 224.598-107.685 232.389-231.519 9.414-149.619-113.924-272.956-263.543-263.542z" fill="#8cebaf"/></g><g><path d="m393.566 353.401c-5.696 16.083-28.301 29.422-46.332 33.318-12.336 2.626-28.449 4.722-82.69-17.766-69.38-28.744-114.06-99.246-117.542-103.82-3.335-4.574-28.035-37.331-28.035-71.21s17.205-50.375 24.14-57.458c5.696-5.814 15.11-8.47 24.14-8.47 2.922 0 5.548.148 7.909.266 6.935.295 10.417.708 14.992 11.657 5.696 13.723 19.566 47.601 21.219 51.083 1.682 3.482 3.364 8.204 1.003 12.778-2.213 4.722-4.161 6.817-7.643 10.831s-6.788 7.083-10.27 11.391c-3.187 3.748-6.788 7.761-2.774 14.697 4.013 6.787 17.884 29.423 38.305 47.601 26.353 23.461 47.719 30.957 55.363 34.144 5.696 2.361 12.483 1.8 16.644-2.626 5.282-5.696 11.804-15.139 18.444-24.435 4.722-6.669 10.683-7.496 16.939-5.135 6.374 2.213 40.105 18.887 47.04 22.34 6.935 3.482 11.509 5.135 13.191 8.056 1.653 2.922 1.653 16.645-4.043 32.758z" fill="#fff"/></g><g><path d="m319.176 302.635c3.153-3.399 6.772-8.194 10.569-13.435-3.395.451-6.564 2.308-9.307 6.182-2.605 3.647-5.167 7.255-7.667 10.712 2.398-.565 4.657-1.6 6.405-3.459z" fill="#dcf8e1"/></g><g><path d="m364.416 369.536c-12.335 2.627-28.448 4.722-82.69-17.766-69.38-28.744-114.06-99.245-117.542-103.819-3.335-4.574-28.036-37.332-28.036-71.21 0-20.861 6.527-35.089 13.159-44.63-2.311 1.199-4.465 2.582-6.201 4.354-6.935 7.083-24.14 23.579-24.14 57.458s24.701 66.636 28.036 71.21c3.482 4.574 48.162 75.076 117.543 103.82 54.241 22.488 70.354 20.392 82.69 17.766 16.275-3.516 36.154-14.752 44.083-28.73-8.428 5.539-18.185 9.664-26.902 11.547z" fill="#dcf8e1"/></g><g><path d="m333.594 396.262c-13.935 0-34.171-4.205-72.108-19.934-42.794-17.729-85.266-54.867-119.588-104.569-.605-.876-1.021-1.487-1.25-1.79-.027-.036-.071-.095-.098-.132l-.301-.41c-10.93-14.909-29.268-44.542-29.268-75.504 0-36.173 18.086-54.567 25.809-62.422l.61-.621c6.767-6.907 17.645-10.868 29.845-10.868 2.864 0 5.421.13 7.677.244l.63.031c10.359.441 16.312 3.032 21.961 16.554 1.721 4.146 4.174 10.097 6.812 16.499 5.565 13.501 13.186 31.991 14.252 34.239 1.307 2.706 5.337 11.051.962 19.715-2.527 5.356-4.893 8.076-8.159 11.83l-.625.72c-1.563 1.802-3.067 3.398-4.521 4.942-1.92 2.038-3.734 3.964-5.569 6.235-.042.053-.085.103-.128.155l-.176.207c-2.886 3.389-2.886 3.389-1.769 5.318 6.021 10.182 18.852 29.745 36.704 45.636 23.178 20.635 41.912 28.201 50.914 31.836.828.335 1.567.633 2.212.902 2.443 1.015 5.923 1.222 7.754-.725 4.179-4.507 9.47-11.948 15.071-19.826l2.693-3.782c6.32-8.927 15.857-11.847 26.161-8 7.829 2.771 46.237 21.882 47.875 22.698 1.414.71 2.706 1.331 3.896 1.904 5.637 2.714 10.089 4.858 12.656 9.315 3.695 6.533 2.205 23.449-3.435 39.402 0 .002-.001.003-.001.005-6.772 19.121-31.935 34.085-52.173 38.456-4.547.969-9.36 1.74-15.325 1.74zm-180.186-135.895c.367.487.851 1.189 1.63 2.318 32.596 47.203 72.571 82.324 112.562 98.892 54.079 22.42 68.457 19.358 77.971 17.333 15.867-3.428 35.866-15.177 40.469-28.175 4.509-12.756 4.841-22.811 4.421-26.135-1.115-.75-3.521-1.908-5.516-2.868-1.263-.608-2.635-1.269-4.11-2.01-16.334-8.133-41.451-20.326-46.077-21.932-.067-.023-.134-.048-.2-.073-3.579-1.351-5.426-.798-7.604 2.279l-2.692 3.781c-5.911 8.313-11.493 16.164-16.414 21.471-6.247 6.645-16.265 8.424-25.556 4.571-.611-.254-1.295-.53-2.062-.84-9.068-3.663-30.304-12.239-55.551-34.715-19.47-17.332-33.336-38.453-39.869-49.5-6.803-11.756.084-19.845 3.395-23.733l.108-.127c2.192-2.705 4.28-4.922 6.299-7.066 1.406-1.492 2.735-2.902 4.085-4.459l.637-.734c2.974-3.419 4.204-4.834 5.807-8.252.043-.092.088-.182.134-.272.392-.759.621-2.087-1.098-5.646-1.179-2.483-6.799-16.091-14.613-35.05-2.633-6.387-5.08-12.325-6.79-16.444-2.05-4.908-3.277-5.988-3.604-6.202-.581-.38-2.762-.473-4.354-.54l-.698-.035c-2.168-.11-4.41-.223-6.871-.223-7.702 0-14.767 2.327-18.437 6.073l-.632.644c-6.89 7.007-21.227 21.588-21.227 51.226 0 19.293 9.541 43.371 26.177 66.061zm240.158 93.033h.01z" fill="#00bebe"/></g><g><path d="m480.008 256c0 44.356-12.928 85.672-35.181 120.455-6.784 10.604-4.117 24.674 5.781 32.451l.358.281c33.19-42.182 53.042-95.35 53.042-153.187 0-136.971-111.037-248.008-248.008-248.008v.446c0 12.958 10.012 23.402 22.904 24.711 112.957 11.471 201.104 106.867 201.104 222.851z" fill="#fff"/></g><g><path d="m255.759 512c-53.567 0-104.549-16.287-148.316-47.533l-63.783 24.531c-5.981 2.299-12.511.914-17.041-3.617-4.531-4.531-5.916-11.061-3.616-17.041l24.554-63.84c-34.334-48.002-50.608-104.763-47.085-164.087 3.672-61.854 30.092-120.411 74.392-164.883 44.305-44.475 102.759-71.111 164.594-75.001l.501 7.968-.501-7.968c37.637-2.372 74.317 3.247 109.01 16.691 33.346 12.922 63.137 32.358 88.547 57.766 25.409 25.409 44.845 55.2 57.766 88.546 13.444 34.692 19.059 71.368 16.691 109.008-3.89 61.836-30.526 120.29-75.002 164.596-44.471 44.301-103.028 70.721-164.883 74.393-5.297.314-10.576.471-15.828.471zm-148.314-63.516c3.269 0 6.512 1.015 9.275 2.986 45.055 32.165 98.28 47.419 153.921 44.118 57.961-3.44 112.852-28.217 154.559-69.766 41.711-41.551 66.689-96.343 70.335-154.284 2.222-35.318-3.041-69.715-15.644-102.237-12.114-31.262-30.339-59.196-54.168-83.025s-51.763-42.053-83.025-54.168c-32.522-12.603-66.923-17.866-102.237-15.643-57.941 3.646-112.733 28.625-154.284 70.335-41.548 41.708-66.324 96.599-69.765 154.56-3.303 55.64 11.952 108.864 44.116 153.919 3.126 4.379 3.849 9.969 1.932 14.953l-24.554 63.841c-.001.003-.003.006-.004.009.018.02.04.037.056.045l63.811-24.587c1.839-.708 3.762-1.056 5.676-1.056z" fill="#00bebe"/></g><g><path d="m256.001 511.992c-53.635 0-105.005-16.433-148.555-47.523l-63.786 24.529c-5.983 2.299-12.511.914-17.041-3.617-4.531-4.531-5.916-11.061-3.616-17.041l24.552-63.837c-31.114-43.498-47.547-94.867-47.547-148.503 0-31.284 5.581-61.846 16.587-90.838 1.565-4.122 6.174-6.195 10.298-4.63 4.123 1.565 6.196 6.176 4.631 10.299-10.317 27.173-15.547 55.828-15.547 85.169 0 50.29 15.405 98.45 44.55 139.277 3.128 4.384 3.85 9.975 1.932 14.961l-24.552 63.836c-.001.003-.003.006-.004.009.018.02.04.037.056.045l63.808-24.586c4.987-1.919 10.578-1.196 14.959 1.933 40.826 29.145 88.988 44.55 139.277 44.55 18.302 0 36.538-2.067 54.203-6.143 4.297-.992 8.584 1.688 9.575 5.984.992 4.296-1.688 8.584-5.984 9.575-18.843 4.347-38.288 6.551-57.796 6.551z" fill="#283246"/></g><g><path d="m333.595 396.264c-13.927 0-34.165-4.205-72.109-19.936-42.794-17.729-85.266-54.867-119.588-104.569-.605-.876-1.021-1.487-1.25-1.79-.027-.036-.072-.095-.098-.132l-.301-.41c-10.93-14.909-29.268-44.542-29.268-75.504 0-4.409 3.574-7.984 7.984-7.984s7.984 3.575 7.984 7.984c0 19.293 9.541 43.371 26.177 66.061l.28.383c.367.487.851 1.189 1.631 2.318 32.596 47.203 72.571 82.324 112.562 98.892 54.079 22.42 68.457 19.358 77.971 17.333 4.315-.926 8.553 1.833 9.472 6.146.918 4.313-1.834 8.553-6.146 9.471-4.538.967-9.343 1.737-15.301 1.737z" fill="#283246"/></g></g></svg>